<svg xmlns="http://www.w3.org/2000/svg" viewBox="0 0 256 256" aria-hidden="true">
<path fill="#25D366" d="M128 20c-59.6 0-108 48.4-108 108 0 19 4.9 37.4 14.1 53.7L20 236l55-14.4C90.7 228.8 109.1 234 128 234c59.6 0 108-48.4 108-108S187.6 20 128 20z"/>
<path fill="#fff" d="M190.7 150.1c-2.8 7.8-13.5 14.3-22.4 16.2-6 1.2-13.7 2.2-39.9-8.3-33.5-13.9-55.1-48-56.8-50.1-1.6-2.1-13.6-18.1-13-34.6.6-16.5 9.4-24.4 12.7-27.7 3.3-3.3 7.2-4.1 9.6-4.1 2.4 0 4.8 0 6.9.1 2.2.1 5.2-.9 8.1 6.2 2.8 6.8 9.6 23.5 10.5 25.2.8 1.7 1.4 3.7.3 5.8-1.1 2.1-1.7 3.3-3.3 5.1-1.6 1.8-3.4 4-4.8 5.4-1.6 1.6-3.2 3.3-1.4 6.4 1.9 3.1 8.4 13.8 18 22.3 12.4 11 22.8 14.4 26 16 3.2 1.6 5.1 1.3 7-0.8 1.9-2.1 8.1-9.5 10.3-12.7 2.2-3.2 4.4-2.6 7.4-1.6 3 1 19.1 9 22.4 10.7 3.3 1.7 5.5 2.4 6.3 3.8.8 1.4.8 8.1-2 15.9z"/>
</svg>